,
Brought to you by  http://www.scenetime.com/signup.php
 
 Hottest scene tracker on the net !!!   
 
No fake torrents from scenebalance 
shame on those who comment fake before downloading my torrents

    seed back for speed


 



...................................NFO:.................................................[pre]

*******************************************************************************
               The.Lincoln.Lawyer.2011.BRRip.XviD.AC3-PRESTiGE
*******************************************************************************

-------------------------------------------------------------------------------
                              General Information
-------------------------------------------------------------------------------

TiTLE............: The.Lincoln.Lawyer.2011.BRRip.XviD.AC3-PRESTiGE 

iMDB.............: http://www.imdb.com/title/tt1189340/

GENRE............: Crime | Drama | Thriller

LANGUAGE.........: English

SOURCE...........: 720p x0r MANY THANKS!!

ENCODED by.......: akosipalos

FiLE SiZE........: 1.47GB

SUBS.............: N/A

DURATiON.........: 1h 58mn



ViDEO iNFO:

ID                               : 0
Format                           : MPEG-4 Visual
Format profile                   : Advanced Simple@L5
Format settings, BVOP            : Yes
Format settings, QPel            : No
Format settings, GMC             : No warppoints
Format settings, Matrix          : Default (H.263)
Codec ID                         : XVID
Codec ID/Hint                    : XviD
Duration                         : 1h 58mn
Bit rate                         : 1 320 Kbps
Width                            : 700 pixels
Height                           : 288 pixels
Display aspect ratio             : 2.40:1
Frame rate                       : 24.000 fps
Color space                      : YUV
Chroma subsampling               : 4:2:0
Bit depth                        : 8 bits
Scan type                        : Progressive
Bits/(Pixel*Frame)               : 0.273
Stream size                      : 1.09 GiB (74%)
Writing library                  : XviD 1.2.1 (UTC 2008-12-04)


AUDiO iNFO:

ID                               : 1
Format                           : AC-3
Format/Info                      : Audio Coding 3
Mode extension                   : CM (complete main)
Codec ID                         : 2000
Duration                         : 1h 58mn
Bit rate mode                    : Constant
Bit rate                         : 448 Kbps
Channel(s)                       : 6 channels
Channel positions                : Front: L C R, Side: L R, LFE
Sampling rate                    : 48.0 KHz
Bit depth                        : 16 bits
Stream size                      : 379 MiB (25%)
Alignment                        : Aligned on interleaves
Interleave, duration             : 64 ms (1.54 video frames)
Interleave, preload duration     : 192 ms
Title                            : T2_Audio - 5.1 channels



-------------------------------------------------------------------------------
                                 PLOT:
-------------------------------------------------------------------------------


Matt Haller is a defense lawyer who works out of his Lincoln. When a wealthy Realtor is accused of raping a prostitute, Haller is asked to defend him. The man claims that the woman is trying to get some money out of him. But when Haller looks at the evidence against him, he learns that this case might be linked to an old case of his.


-------------------------------------------------------------------------------
                                 CAST:
-------------------------------------------------------------------------------

Matthew McConaughey ... Mick Haller

Marisa Tomei ... Maggie McPherson

Ryan Phillippe ... Louis Roulet

William H. Macy ... Frank Levin

Josh Lucas ... Ted Minton

John Leguizamo ... Val Valenzuela

Michael Pea ... Jesus Martinez

Bob Gunton ... Cecil Dobbs

Frances Fisher ... Mary Windsor

-------------------------------------------------------------------------------
                             Release Notes
-------------------------------------------------------------------------------


PRESTiGE - IS LOOKING FOR?: CAMMER'S, AUDIO SUPPLIERS, SYNCER'S, RETAIL
SUPPLIER'S, SILVER'S, SCREENER'S, LINE CAPPER'S

ENCODER'S - ANYTHING AT ALL EMAIL US AT..... prestige@hushmail.me

** ** ** ** ** ** ** ** **

PRESTiGE is the level of respect at which one is regarded by others....RIzE Above Or Sink Below...


-------------------------------------------------------------------------------
                                 GREETZ:
-------------------------------------------------------------------------------


twisted ,bigguy, CTFX, HiTM4N, smelise.paranoid53, mtyy, fifer, akosipalos, DiLLoN, imagine,"the squad" , floridajoe and To All Encoders Past And Present...


-------------------------------------------------------------------------------
Generated with Cool NFO Creator - http://fly.to/coolbeans
-------------------------------------------------------------------------------
[/pre]